<?xml version="1.0" encoding="utf-8"?>
<!-- Generator: Adobe Illustrator 21.1.0, SVG Export Plug-In . SVG Version: 6.00 Build 0)  -->
<svg version="1.1" baseProfile="basic" id="Layer_1"
	 xmlns="http://www.w3.org/2000/svg" xmlns:xlink="http://www.w3.org/1999/xlink" x="0px" y="0px" viewBox="0 0 473.7 473.7"
	 xml:space="preserve">
<path fill="#69C1ED" d="M0,236.8C0,106,106,0,236.8,0c130.8,0,236.8,106,236.8,236.8c0,130.8-106,236.8-236.8,236.8
	C106,473.7,0,367.6,0,236.8z"/>
<path fill="#FFFFFF" d="M351.7,125.1l-22.2-18.8c-6.8-5.8-16.9-5.5-23.4,0.6l-12.3,11.5c-10.4-5-21.4-8.5-32.7-10.6L257.7,91
	c-1.8-8.7-9.9-14.8-18.8-14.1l-29,2.5c-8.9,0.8-15.9,8-16.1,17l-0.6,17.2c-11.1,4-21.6,9.5-31.2,16.4l-14.7-9.7
	c-7.5-4.9-17.4-3.5-23.2,3.3l-18.8,22.4c-5.8,6.8-5.5,16.9,0.6,23.4l12.8,13.7c-4.4,10-7.6,20.5-9.4,31.3L91.1,218
	c-8.7,1.8-14.8,9.9-14.1,18.8l2.5,29c0.8,8.9,8,15.9,17,16.1l19.8,0.6c3.6,9.4,8.3,18.4,14,26.8l-11.1,16.7
	c-4.9,7.5-3.5,17.4,3.3,23.2l22.2,18.8c6.8,5.8,16.9,5.5,23.4-0.6l14.5-13.6c9.5,4.4,19.5,7.8,29.8,9.7l4,19.9
	c1.8,8.7,9.9,14.8,18.8,14.1l29-2.5c8.9-0.8,15.9-8,16.1-17l0.6-19.5c10.6-3.7,20.6-8.8,29.8-15.1l16,10.6
	c7.5,4.9,17.4,3.5,23.2-3.3l18.8-22.2c5.8-6.8,5.5-16.9-0.6-23.4l-12.9-13.7c4.7-10,8.2-20.6,10.2-31.4l17.6-3.6
	c8.7-1.8,14.8-9.9,14.1-18.8l-2.5-29c-0.8-8.9-8-15.9-17-16.1L360,192c-3.7-10.3-8.6-20-14.7-29.1l9.7-14.5
	C360,140.9,358.6,130.9,351.7,125.1z M242.5,292.6c-31.3,2.7-58.9-20.7-61.6-52c-2.7-31.3,20.7-58.9,52-61.6
	c31.3-2.7,58.9,20.7,61.6,52C297.2,262.4,273.8,290,242.5,292.6z"/>
</svg>
