<?xml version="1.0" encoding="utf-8"?>
<!-- Generator: Adobe Illustrator 21.1.0, SVG Export Plug-In . SVG Version: 6.00 Build 0)  -->
<svg version="1.1" baseProfile="basic" id="Layer_1"
	 xmlns="http://www.w3.org/2000/svg" xmlns:xlink="http://www.w3.org/1999/xlink" x="0px" y="0px" viewBox="0 0 473.7 473.7"
	 xml:space="preserve">
<path fill="#D1CC71" d="M0,236.8C0,106,106,0,236.8,0c130.8,0,236.8,106,236.8,236.8c0,130.8-106,236.8-236.8,236.8
	C106,473.7,0,367.6,0,236.8z"/>
<path fill="#FFFFFF" d="M347.9,282c0,14.1,0,28.1,0,42.2c-71.7,0-143.3,0-215,0c0-14,0-28,0-42c0-18.1-28.1-18.3-28.1-0.2
	c0,18.7,0,37.4,0,56.2c0,3.9,1.3,6.9,3.3,9.1c2.2,3,5.7,5,10.6,5c81,0,162.1,0,243.1,0c3.9,0,6.9-1.3,9.1-3.3c3-2.2,5-5.7,5-10.6
	c0-18.7,0-37.4,0-56.2C376,264.1,347.9,263.9,347.9,282z"/>
<path fill="#FFFFFF" d="M170.4,177c15.4,0,30.8,0,46.2,0c0,23.3,0,46.6,0,70c0,27.2,42.1,27.4,42.1,0.3c0-23.4,0-46.8,0-70.3
	c14.8,0,29.6,0,44.4,0c0.3,0,0.5,0,0.8-0.1c2.9-0.3,4.8-2,5.6-4.2c1.1-2.2,1.1-4.9-0.9-7.2c-0.2-0.3-0.5-0.6-0.7-0.8
	c-22.1-22-44.1-44.1-66.1-66.1c-2.7-2.7-7.2-2.6-9.9,0.1c-22.1,22.1-44.2,44.3-66.4,66.4C161.2,169.3,164.3,177,170.4,177z"/>
</svg>
